<?xml version="1.0" encoding="utf-8"?>
<!-- Generator: Adobe Illustrator 15.0.2, SVG Export Plug-In . SVG Version: 6.00 Build 0)  -->
<!DOCTYPE svg PUBLIC "-//W3C//DTD SVG 1.1//EN" "http://www.w3.org/Graphics/SVG/1.1/DTD/svg11.dtd">
<svg version="1.1" id="Layer_1" xmlns="http://www.w3.org/2000/svg" xmlns:xlink="http://www.w3.org/1999/xlink" x="0px" y="0px"
	 width="72px" height="72px" viewBox="0 0 72 72" enable-background="new 0 0 72 72" xml:space="preserve">
<g>
	<polygon fill="#FFFFFF" points="6,48 36,66 66,48 36,60 	"/>
	<g>
		<path fill="#BCBEC0" d="M4.233,51.022c10,6,20,12,30,18c1.061,0.636,2.472,0.636,3.533,0c10.001-6,20.001-12,30.001-18
			c3.292-1.976,1.088-7.911-2.697-6.397c-9.987,3.995-19.976,7.99-29.963,11.985c1.486-0.595,2.412,0.25,0.584-0.481
			c-1.092-0.437-2.185-0.873-3.277-1.311c-3.342-1.337-6.683-2.673-10.024-4.01c-5.153-2.062-10.306-4.122-15.459-6.184
			c-4.195-1.678-5.999,5.095-1.861,6.75c5.153,2.062,10.306,4.122,15.459,6.184c3.341,1.337,6.683,2.673,10.024,4.01
			C32.157,62.21,34.205,63.5,36,63.5c1.593,0,3.363-1.098,4.788-1.668c3.562-1.425,7.122-2.849,10.684-4.273
			c5.153-2.062,10.307-4.122,15.46-6.184c-0.899-2.133-1.798-4.265-2.697-6.397c-10,6-20,12-30,18c1.178,0,2.355,0,3.533,0
			c-10-6-20-12-30-18C3.885,42.649,0.368,48.703,4.233,51.022z"/>
	</g>
</g>
<g>
	<polygon fill="#FFFFFF" points="6,30 36,48 66,30 36,42 	"/>
	<g>
		<path fill="#BCBEC0" d="M4.233,33.022c10,6,20,12,30,18c1.061,0.636,2.472,0.636,3.532,0c10.002-6,20.002-12,30.002-18
			c3.291-1.976,1.088-7.912-2.697-6.397c-9.988,3.995-19.977,7.99-29.964,11.985c1.486-0.595,2.411,0.25,0.584-0.481
			c-1.092-0.437-2.185-0.873-3.277-1.311c-3.342-1.337-6.683-2.673-10.024-4.01c-5.153-2.062-10.306-4.123-15.459-6.184
			c-4.195-1.678-5.999,5.095-1.861,6.75c5.153,2.062,10.306,4.122,15.459,6.184c3.341,1.337,6.683,2.673,10.024,4.01
			C32.157,44.21,34.206,45.5,36,45.5c1.594,0,3.363-1.098,4.787-1.668c3.562-1.425,7.123-2.849,10.684-4.273
			c5.154-2.062,10.307-4.122,15.461-6.184c-0.9-2.133-1.799-4.265-2.697-6.397c-10,6-20,12-30.001,18c1.178,0,2.355,0,3.532,0
			c-9.999-6-19.999-12-29.999-18C3.886,24.649,0.368,30.703,4.233,33.022z"/>
	</g>
</g>
<g>
	<polygon fill="#FFFFFF" points="6,12 36,30 66,12 36,24 	"/>
	<g>
		<path fill="#BCBEC0" d="M4.233,15.022c10,6,20,12,30,18c1.061,0.636,2.472,0.636,3.532,0c10.002-6,20.002-12,30.002-18
			c3.291-1.975,1.088-7.911-2.697-6.397c-9.988,3.995-19.977,7.99-29.964,11.985c1.486-0.595,2.411,0.25,0.584-0.481
			c-1.092-0.437-2.185-0.874-3.277-1.311c-3.342-1.336-6.683-2.673-10.024-4.01c-5.153-2.061-10.306-4.123-15.459-6.184
			c-4.195-1.678-5.999,5.095-1.861,6.75c5.153,2.061,10.306,4.123,15.459,6.184c3.341,1.336,6.683,2.673,10.024,4.01
			C32.157,26.21,34.206,27.5,36,27.5c1.594,0,3.363-1.098,4.787-1.668c3.562-1.424,7.123-2.849,10.684-4.273
			c5.154-2.061,10.307-4.123,15.461-6.184c-0.9-2.132-1.799-4.265-2.697-6.397c-10,6-20,12-30.001,18c1.178,0,2.355,0,3.532,0
			c-9.999-6-19.999-12-29.999-18C3.886,6.649,0.368,12.703,4.233,15.022z"/>
	</g>
</g>
</svg>
