<?xml version="1.0" encoding="utf-8"?>
<!-- Generator: Adobe Illustrator 15.0.2, SVG Export Plug-In . SVG Version: 6.00 Build 0)  -->
<!DOCTYPE svg PUBLIC "-//W3C//DTD SVG 1.1//EN" "http://www.w3.org/Graphics/SVG/1.1/DTD/svg11.dtd">
<svg version="1.1" id="Layer_1" xmlns="http://www.w3.org/2000/svg" xmlns:xlink="http://www.w3.org/1999/xlink" x="0px" y="0px"
	 width="72px" height="100px" viewBox="0 0 72 100" enable-background="new 0 0 72 100" xml:space="preserve">
<path fill="none" d="M36.142,100.964c0,0-35.79-40.383-35.79-64.21c0-21.46,14.343-35.79,35.79-35.79
	c21.447,0,35.79,14.33,35.79,35.79C71.932,60.581,36.142,100.964,36.142,100.964z"/>
<path fill="#FF0000" d="M36.142,0.964c-21.447,0-35.79,14.33-35.79,35.79c0,23.827,35.79,64.21,35.79,64.21
	s35.79-40.383,35.79-64.21C71.932,15.294,57.589,0.964,36.142,0.964z M6.667,37.806c0-18.296,11.18-30.527,29.474-30.527
	c18.292,0,29.474,12.231,29.474,30.527c0,20.316-29.474,53.686-29.474,53.686S6.667,58.122,6.667,37.806z"/>
<path fill="#FF0000" d="M36.311,27.338c5.264,0,9.532,4.268,9.532,9.531c0,5.263-4.269,9.531-9.532,9.531
	c-5.266,0-9.534-4.268-9.534-9.531C26.777,31.606,31.045,27.338,36.311,27.338z"/>
</svg>
