<?xml version="1.0" encoding="utf-8"?>
<!-- Generator: Adobe Illustrator 15.0.2, SVG Export Plug-In . SVG Version: 6.00 Build 0)  -->
<!DOCTYPE svg PUBLIC "-//W3C//DTD SVG 1.1//EN" "http://www.w3.org/Graphics/SVG/1.1/DTD/svg11.dtd">
<svg version="1.1" id="Layer_1" xmlns="http://www.w3.org/2000/svg" xmlns:xlink="http://www.w3.org/1999/xlink" x="0px" y="0px"
	 width="100px" height="100px" viewBox="0 0 100 100" enable-background="new 0 0 100 100" xml:space="preserve">
<g>
	<path fill="#A40000" stroke="#A40000" stroke-miterlimit="10" d="M56.514,70.866c-0.553,0-1-0.433-1-0.968V15.479
		c0-0.534,0.447-0.966,1-0.966c0.551,0,1,0.432,1,0.966V69.9C57.514,70.434,57.064,70.866,56.514,70.866z"/>
</g>
<g>
	<g>
		<path fill="#A40000" stroke="#A40000" stroke-miterlimit="10" d="M18.875,43.261c-0.054,0-0.108-0.007-0.163-0.021
			c-0.357-0.09-0.575-0.451-0.485-0.809c0.056-0.223,0.117-0.447,0.184-0.672c0.104-0.353,0.474-0.555,0.829-0.449
			c0.354,0.105,0.554,0.477,0.45,0.829c-0.061,0.205-0.117,0.411-0.168,0.615C19.446,43.058,19.174,43.261,18.875,43.261z"/>
	</g>
	<g>
		<path fill="#A40000" stroke="#A40000" stroke-miterlimit="10" d="M18.475,50.814c-0.352,0-0.645-0.274-0.666-0.628
			c-0.024-0.423-0.047-0.848-0.065-1.273c-0.016-0.367,0.27-0.68,0.638-0.694c0.37-0.016,0.679,0.271,0.695,0.637
			c0.019,0.42,0.041,0.838,0.065,1.256c0.021,0.367-0.261,0.681-0.628,0.703C18.5,50.814,18.487,50.814,18.475,50.814z
			 M18.383,47.021c-0.007,0-0.014,0-0.021,0c-0.369-0.013-0.657-0.32-0.646-0.688c0.014-0.433,0.039-0.866,0.079-1.303
			c0.034-0.366,0.354-0.634,0.725-0.604c0.367,0.034,0.637,0.358,0.604,0.725c-0.038,0.41-0.061,0.818-0.074,1.224
			C19.038,46.735,18.742,47.021,18.383,47.021z"/>
	</g>
	<g>
		<path fill="#A40000" stroke="#A40000" stroke-miterlimit="10" d="M30.726,69.043c-0.358,0-0.654-0.283-0.667-0.645
			c-0.012-0.369,0.276-0.678,0.645-0.688c0.41-0.015,0.811-0.047,1.192-0.101c0.359-0.055,0.701,0.203,0.751,0.567
			c0.05,0.365-0.205,0.702-0.569,0.753c-0.426,0.06-0.874,0.098-1.33,0.11C30.742,69.043,30.734,69.043,30.726,69.043z
			 M28.204,68.902c-0.031,0-0.062-0.002-0.094-0.008c-0.437-0.062-0.875-0.144-1.301-0.24c-0.359-0.081-0.583-0.439-0.5-0.799
			c0.083-0.358,0.441-0.584,0.799-0.5c0.39,0.09,0.789,0.164,1.188,0.22c0.364,0.051,0.619,0.389,0.567,0.753
			C28.816,68.661,28.53,68.902,28.204,68.902z M34.42,68.27c-0.252,0-0.494-0.144-0.606-0.388c-0.154-0.335-0.009-0.729,0.327-0.885
			c0.337-0.156,0.663-0.349,0.967-0.574c0.295-0.221,0.713-0.157,0.932,0.14c0.219,0.295,0.157,0.713-0.139,0.935
			c-0.377,0.278-0.782,0.521-1.202,0.713C34.609,68.25,34.513,68.27,34.42,68.27z M24.561,67.873c-0.095,0-0.19-0.02-0.281-0.062
			c-0.419-0.192-0.821-0.428-1.196-0.688c-0.302-0.211-0.375-0.627-0.163-0.931c0.211-0.301,0.627-0.375,0.929-0.162
			c0.311,0.22,0.645,0.41,0.993,0.572c0.333,0.154,0.479,0.551,0.323,0.885C25.052,67.73,24.812,67.873,24.561,67.873z
			 M37.221,65.783c-0.129,0-0.259-0.037-0.374-0.114c-0.305-0.206-0.385-0.621-0.178-0.927c0.21-0.311,0.41-0.646,0.612-1.025
			c0.171-0.324,0.576-0.449,0.901-0.275c0.326,0.172,0.449,0.576,0.277,0.9c-0.223,0.422-0.448,0.799-0.685,1.148
			C37.646,65.682,37.436,65.783,37.221,65.783z M21.68,65.468c-0.206,0-0.409-0.094-0.54-0.272c-0.257-0.354-0.5-0.737-0.721-1.144
			c-0.177-0.323-0.058-0.729,0.266-0.905c0.324-0.176,0.729-0.058,0.905,0.267c0.194,0.354,0.406,0.688,0.629,0.997
			c0.217,0.298,0.151,0.715-0.146,0.933C21.953,65.427,21.816,65.468,21.68,65.468z M38.9,62.386c-0.08,0-0.162-0.015-0.241-0.046
			c-0.344-0.133-0.514-0.521-0.381-0.863c0.153-0.391,0.298-0.783,0.441-1.174c0.126-0.346,0.512-0.521,0.855-0.396
			c0.346,0.126,0.523,0.51,0.397,0.854c-0.146,0.398-0.294,0.8-0.45,1.197C39.419,62.225,39.167,62.386,38.9,62.386z M20.022,62.068
			c-0.282,0-0.543-0.18-0.634-0.461c-0.133-0.412-0.252-0.832-0.36-1.26c-0.09-0.354,0.125-0.72,0.482-0.811
			c0.355-0.09,0.72,0.126,0.81,0.482c0.102,0.397,0.213,0.791,0.337,1.174c0.113,0.353-0.079,0.729-0.43,0.842
			C20.159,62.061,20.09,62.068,20.022,62.068z M40.213,58.82c-0.074,0-0.15-0.012-0.224-0.037c-0.347-0.123-0.528-0.506-0.405-0.854
			l0.422-1.19c0.123-0.347,0.506-0.528,0.851-0.405c0.348,0.122,0.529,0.504,0.406,0.852l-0.422,1.192
			C40.745,58.65,40.486,58.82,40.213,58.82z M19.169,58.374c-0.322,0-0.604-0.233-0.658-0.562c-0.068-0.422-0.129-0.849-0.185-1.273
			c-0.047-0.365,0.21-0.699,0.576-0.747c0.36-0.041,0.699,0.21,0.747,0.576c0.054,0.413,0.113,0.823,0.179,1.231
			c0.059,0.362-0.188,0.707-0.552,0.766C19.24,58.371,19.205,58.374,19.169,58.374z M41.506,55.253c-0.08,0-0.162-0.015-0.241-0.045
			c-0.344-0.134-0.514-0.521-0.381-0.862c0.155-0.4,0.315-0.798,0.482-1.193c0.144-0.338,0.535-0.494,0.875-0.354
			c0.339,0.145,0.498,0.535,0.354,0.875c-0.162,0.383-0.316,0.768-0.467,1.153C42.026,55.091,41.773,55.253,41.506,55.253z
			 M18.724,54.604c-0.343,0-0.635-0.264-0.664-0.61c-0.036-0.425-0.067-0.849-0.096-1.271c-0.026-0.367,0.252-0.688,0.619-0.712
			c0.369-0.012,0.686,0.251,0.711,0.619c0.028,0.418,0.06,0.836,0.095,1.252c0.031,0.367-0.242,0.688-0.609,0.722
			C18.761,54.604,18.742,54.604,18.724,54.604z M43.062,51.792c-0.106,0-0.213-0.024-0.313-0.078
			c-0.325-0.174-0.448-0.578-0.274-0.903c0.204-0.378,0.418-0.756,0.646-1.129c0.191-0.313,0.602-0.416,0.917-0.222
			c0.314,0.19,0.414,0.602,0.222,0.915c-0.214,0.353-0.416,0.706-0.607,1.065C43.532,51.664,43.301,51.792,43.062,51.792z
			 M45.198,48.667c-0.164,0-0.329-0.061-0.458-0.182c-0.268-0.253-0.281-0.674-0.029-0.942c0.304-0.323,0.63-0.634,0.969-0.923
			c0.279-0.24,0.701-0.207,0.939,0.073c0.239,0.28,0.207,0.701-0.073,0.94c-0.302,0.259-0.592,0.535-0.864,0.823
			C45.552,48.597,45.375,48.667,45.198,48.667z M48.215,46.393c-0.246,0-0.483-0.137-0.599-0.373
			c-0.163-0.33-0.026-0.73,0.304-0.893c0.43-0.211,0.861-0.381,1.284-0.504c0.355-0.104,0.724,0.099,0.827,0.452
			c0.104,0.354-0.1,0.725-0.453,0.828c-0.349,0.103-0.708,0.242-1.069,0.42C48.415,46.37,48.314,46.393,48.215,46.393z"/>
	</g>
	<g>
		<path fill="#A40000" stroke="#A40000" stroke-miterlimit="10" d="M52.531,46.108c-0.102,0-0.206-0.023-0.303-0.073
			c-0.16-0.082-0.33-0.148-0.502-0.198c-0.354-0.103-0.56-0.473-0.455-0.827c0.103-0.354,0.472-0.557,0.826-0.454
			c0.254,0.073,0.502,0.172,0.735,0.293c0.329,0.167,0.458,0.569,0.291,0.896C53.008,45.977,52.773,46.108,52.531,46.108z"/>
	</g>
</g>
<g>
	<g>
		<path fill="#A40000" stroke="#A40000" stroke-miterlimit="10" d="M60.064,50.857c-0.192,0-0.385-0.084-0.519-0.246
			c-0.147-0.182-0.291-0.368-0.429-0.562c-0.217-0.299-0.146-0.716,0.148-0.931c0.299-0.215,0.717-0.147,0.934,0.15
			c0.121,0.171,0.25,0.337,0.381,0.499c0.232,0.286,0.188,0.706-0.098,0.939C60.361,50.809,60.213,50.857,60.064,50.857z"/>
	</g>
	<g>
		<path fill="#A40000" stroke="#A40000" stroke-miterlimit="10" d="M66.333,57.219c-0.213,0-0.421-0.1-0.55-0.287
			c-0.254-0.365-0.538-0.726-0.875-1.101c-0.247-0.272-0.223-0.695,0.05-0.94c0.274-0.248,0.696-0.224,0.942,0.051
			c0.375,0.416,0.695,0.82,0.979,1.231c0.208,0.304,0.135,0.72-0.171,0.929C66.596,57.182,66.463,57.219,66.333,57.219z
			 M63.258,53.984c-0.156,0-0.314-0.055-0.441-0.166l-0.228-0.2c-0.298-0.267-0.598-0.529-0.894-0.798
			c-0.271-0.247-0.293-0.668-0.045-0.942c0.244-0.272,0.668-0.294,0.939-0.046c0.292,0.264,0.587,0.525,0.883,0.785l0.228,0.201
			c0.274,0.244,0.301,0.664,0.057,0.94C63.626,53.909,63.441,53.984,63.258,53.984z"/>
	</g>
	<g>
		<path fill="#A40000" stroke="#A40000" stroke-miterlimit="10" d="M75.17,69.259c-0.345,0-0.636-0.267-0.664-0.614
			c-0.027-0.367,0.245-0.688,0.613-0.718c0.43-0.032,0.869-0.12,1.308-0.261c0.349-0.113,0.726,0.081,0.837,0.434
			c0.112,0.352-0.08,0.727-0.432,0.836c-0.535,0.172-1.077,0.279-1.609,0.321C75.204,69.258,75.188,69.259,75.17,69.259z
			 M72.271,68.73c-0.098,0-0.192-0.021-0.285-0.062c-0.48-0.229-0.949-0.52-1.391-0.867c-0.289-0.228-0.341-0.646-0.111-0.937
			c0.229-0.289,0.646-0.339,0.937-0.11c0.362,0.285,0.744,0.521,1.136,0.707c0.332,0.156,0.478,0.555,0.318,0.887
			C72.762,68.589,72.521,68.73,72.271,68.73z M79.227,67.534c-0.193,0-0.387-0.084-0.519-0.246c-0.231-0.286-0.19-0.706,0.097-0.938
			c0.354-0.287,0.69-0.607,0.998-0.955c0.248-0.274,0.67-0.297,0.942-0.054c0.274,0.245,0.298,0.667,0.053,0.941
			c-0.354,0.397-0.743,0.77-1.151,1.102C79.521,67.484,79.374,67.534,79.227,67.534z M69.123,65.666
			c-0.244,0-0.479-0.134-0.596-0.366c-0.228-0.444-0.418-0.932-0.592-1.485c-0.109-0.352,0.088-0.726,0.438-0.836
			c0.352-0.104,0.727,0.088,0.835,0.438c0.149,0.483,0.315,0.901,0.508,1.282c0.166,0.328,0.034,0.73-0.295,0.896
			C69.327,65.645,69.225,65.666,69.123,65.666z M81.911,64.01c-0.091,0-0.181-0.019-0.269-0.057c-0.338-0.148-0.49-0.543-0.343-0.88
			c0.188-0.429,0.339-0.865,0.444-1.3c0.088-0.357,0.447-0.576,0.807-0.488s0.576,0.447,0.489,0.808
			c-0.125,0.509-0.299,1.021-0.521,1.519C82.412,63.861,82.168,64.01,81.911,64.01z M67.893,61.381c-0.31,0-0.586-0.215-0.651-0.527
			c-0.091-0.42-0.198-0.916-0.339-1.41c-0.1-0.354,0.107-0.723,0.465-0.82c0.354-0.102,0.723,0.107,0.82,0.463
			c0.147,0.529,0.265,1.051,0.356,1.491c0.077,0.358-0.153,0.715-0.513,0.791C67.984,61.376,67.938,61.381,67.893,61.381z
			 M82.532,59.641c-0.321,0-0.604-0.23-0.657-0.561c-0.072-0.441-0.191-0.876-0.359-1.289c-0.138-0.343,0.027-0.73,0.369-0.869
			c0.342-0.136,0.729,0.027,0.868,0.369c0.204,0.507,0.353,1.036,0.438,1.576c0.059,0.363-0.188,0.705-0.551,0.765
			C82.604,59.639,82.566,59.641,82.532,59.641z M80.58,55.674c-0.201,0-0.398-0.091-0.531-0.263c-0.306-0.4-0.615-0.778-0.917-1.144
			c-0.233-0.283-0.194-0.703,0.091-0.938c0.283-0.233,0.705-0.194,0.938,0.088c0.312,0.378,0.633,0.771,0.948,1.185
			c0.224,0.293,0.166,0.711-0.127,0.936C80.863,55.63,80.721,55.674,80.58,55.674z M77.863,52.125c-0.229,0-0.454-0.119-0.577-0.334
			c-0.302-0.521-0.513-1.023-0.644-1.534c-0.095-0.357,0.121-0.721,0.478-0.813c0.354-0.095,0.721,0.122,0.812,0.479
			c0.104,0.393,0.271,0.787,0.51,1.204c0.185,0.318,0.074,0.729-0.246,0.911C78.091,52.098,77.977,52.125,77.863,52.125z"/>
	</g>
	<g>
		<path fill="#A40000" stroke="#A40000" stroke-miterlimit="10" d="M77.463,47.792c-0.07,0-0.141-0.011-0.211-0.034
			c-0.35-0.116-0.538-0.493-0.422-0.844c0.072-0.217,0.154-0.44,0.252-0.671c0.143-0.34,0.533-0.5,0.872-0.357
			c0.34,0.142,0.5,0.532,0.358,0.872c-0.084,0.199-0.155,0.391-0.217,0.577C78.003,47.616,77.742,47.792,77.463,47.792z"/>
	</g>
</g>
<g>
	<g>
		<path fill="#A40000" stroke="#A40000" stroke-miterlimit="10" d="M81.738,44.068c-0.229,0-0.459-0.1-0.616-0.293
			c-0.336-0.413-0.668-0.798-1.007-1.169c-0.295-0.324-0.271-0.826,0.054-1.121c0.324-0.292,0.824-0.269,1.122,0.055
			c0.355,0.392,0.708,0.8,1.062,1.235c0.275,0.339,0.226,0.839-0.117,1.116C82.091,44.009,81.915,44.068,81.738,44.068z
			 M78.459,40.624c-0.191,0-0.386-0.071-0.539-0.213c-0.369-0.341-0.754-0.691-1.164-1.056c-0.326-0.293-0.354-0.794-0.062-1.121
			c0.293-0.327,0.798-0.353,1.121-0.062c0.418,0.372,0.809,0.729,1.184,1.076c0.322,0.297,0.341,0.8,0.043,1.12
			C78.887,40.538,78.673,40.624,78.459,40.624z"/>
	</g>
	<g>
		<path fill="#A40000" stroke="#A40000" stroke-miterlimit="10" d="M77.536,44.25c-0.083,0-0.167-0.013-0.249-0.041
			c-0.416-0.137-0.643-0.585-0.504-1.001c0.146-0.445,0.453-0.982,0.912-1.595c0.267-0.353,0.762-0.422,1.115-0.161
			c0.351,0.263,0.42,0.76,0.158,1.111c-0.342,0.457-0.59,0.872-0.679,1.142C78.18,44.037,77.868,44.25,77.536,44.25z M80.542,40.606
			c-0.237,0-0.472-0.106-0.628-0.309c-0.27-0.344-0.206-0.843,0.141-1.113c0.877-0.679,1.534-0.923,2.092-0.782
			c0.424,0.106,0.683,0.537,0.574,0.964c-0.1,0.402-0.496,0.655-0.896,0.589c-0.055,0.016-0.301,0.099-0.797,0.483
			C80.882,40.551,80.711,40.606,80.542,40.606z"/>
	</g>
</g>
<path fill="#A40000" stroke="#A40000" stroke-miterlimit="10" d="M92.701,85.87c-0.124,0-0.248-0.017-0.37-0.052L56.389,75.451
	l-48.87,8.178c-0.386,0.064-0.782-0.044-1.082-0.298s-0.472-0.626-0.472-1.019V19.186c0-0.652,0.471-1.208,1.114-1.316l49.168-8.227
	c0.196-0.033,0.397-0.021,0.59,0.034L93.07,20.128c0.57,0.165,0.965,0.688,0.965,1.281v63.126c0,0.419-0.197,0.814-0.532,1.066
	C93.27,85.777,92.986,85.87,92.701,85.87z M56.467,72.751c0.126,0,0.249,0.019,0.37,0.054l34.53,9.959v-60.35l-34.979-10.09
	L8.633,20.315v60.421l47.614-7.967C56.32,72.758,56.395,72.751,56.467,72.751z"/>
</svg>
